<svg id="icons" xmlns="http://www.w3.org/2000/svg" viewBox="0 0 128 128"><script xmlns="" id="__gaOptOutExtension"/><defs><style>.cls-1{fill:#bcaf9d;}.cls-2{fill:#f06a55;}.cls-3{fill:#fff;}.cls-4{fill:#919ea8;}.cls-5{fill:none;stroke:#3d344c;stroke-linecap:round;stroke-linejoin:round;stroke-width:2px;}</style></defs><title>bbq</title><rect class="cls-1" x="25" y="37" width="78" height="6" rx="3" ry="3"/><path class="cls-2" d="M98,43a34,34,0,0,1-68,0Z"/><path class="cls-3" d="M68.5,76.69A34,34,0,0,1,30,43H28a3,3,0,0,1,0-6h6a3,3,0,0,0,0,6h5A34,34,0,0,0,68.5,76.69Z"/><circle class="cls-4" cx="92" cy="121" r="6"/><path class="cls-5" d="M98,43a34,34,0,0,1-68,0Z"/><circle class="cls-5" cx="92" cy="121" r="6"/><line class="cls-5" x1="89.94" y1="115.37" x2="75.81" y2="74.9"/><line class="cls-5" x1="52.2" y1="74.9" x2="34" y2="127"/><line class="cls-5" x1="86" y1="121" x2="36.1" y2="121"/><rect class="cls-5" x="25" y="37" width="78" height="6" rx="3" ry="3"/><line class="cls-5" x1="64" y1="1" x2="64" y2="27"/><line class="cls-5" x1="48" y1="9" x2="48" y2="27"/><line class="cls-5" x1="80" y1="9" x2="80" y2="27"/></svg>