<?xml version="1.0" encoding="iso-8859-1"?>
<!-- Generator: Adobe Illustrator 19.0.0, SVG Export Plug-In . SVG Version: 6.00 Build 0)  -->
<svg version="1.1" id="Capa_1" xmlns="http://www.w3.org/2000/svg" xmlns:xlink="http://www.w3.org/1999/xlink" x="0px" y="0px"
	 viewBox="0 0 480 480" style="enable-background:new 0 0 480 480;" xml:space="preserve">
<g>
	<path style="fill:#695A69;" d="M240,102.667c0,2.209-1.791,4-4,4h-0.444V320h8.889V106.667H244
		C241.791,106.667,240,104.876,240,102.667z"/>
	<polygon style="fill:#F2D057;" points="244.444,88.889 351.111,88.889 240,0 240,88.889 	"/>
	<polygon style="fill:#F2D057;" points="240,0 31.111,88.889 128.889,88.889 	"/>
	<polygon style="fill:#E17277;" points="448.889,88.889 240,0 351.111,88.889 	"/>
	<polygon style="fill:#E17277;" points="155.556,88.889 235.556,88.889 240,88.889 240,0 128.889,88.889 	"/>
	<path style="fill:#E9A868;" d="M31.111,88.889v13.778c0,2.209,1.791,4,4,4h89.778c2.209,0,4-1.791,4-4V88.889H31.111z"/>
	<path style="fill:#BF515A;" d="M351.111,88.889v13.778c0,2.209,1.791,4,4,4h89.778c2.209,0,4-1.791,4-4V88.889H351.111z"/>
	<path style="fill:#E9A868;" d="M244.444,88.889H240v13.778c0,2.209,1.791,4,4,4h0.444h102.667c2.209,0,4-1.791,4-4V88.889H244.444z
		"/>
	<path style="fill:#BF515A;" d="M240,102.667V88.889h-4.444h-80h-26.667v13.778c0,2.209,1.791,4,4,4h102.667H236
		C238.209,106.667,240,104.876,240,102.667z"/>
	<path style="fill:#A08A8A;" d="M80,355.556v-71.111c0-26.84-23.969-49.917-24.989-50.89c-3.559-3.377-9.182-3.233-12.567,0.321
		c-3.381,3.559-3.236,9.188,0.323,12.569c5.41,5.139,19.455,21.988,19.455,37.999v71.111H80z"/>
	<path style="fill:#A08A8A;" d="M184.667,391.111h-15.778v17.778h17.778v-15.778C186.667,392.007,185.771,391.111,184.667,391.111z"
		/>
	<polygon style="fill:#A08A8A;" points="80,391.111 80,373.333 62.222,373.333 62.222,391.111 62.222,400 62.222,408.889 
		151.111,408.889 151.111,391.111 	"/>
	<path style="fill:#695A69;" d="M133.333,355.556H80H62.222v-71.111c-9.818,0-17.778,7.959-17.778,17.778V480h17.778v-71.111V400
		v-8.889v-17.778H80h53.333c9.802,0,17.778,7.973,17.778,17.778v17.778V480h17.778v-71.111v-17.778
		C168.889,371.506,152.938,355.556,133.333,355.556z"/>
	<path style="fill:#A08A8A;" d="M424.989,233.555c-1.02,0.972-24.989,24.049-24.989,50.89v71.111h17.778v-71.111
		c0-16.011,14.045-32.86,19.455-37.999c3.559-3.381,3.704-9.01,0.323-12.569C434.171,230.321,428.548,230.178,424.989,233.555z"/>
	<path style="fill:#A08A8A;" d="M295.333,391.111c-1.105,0-2,0.896-2,2v15.778h17.778v-17.778H295.333z"/>
	<polygon style="fill:#A08A8A;" points="417.778,391.111 417.778,373.333 400,373.333 400,391.111 328.889,391.111 328.889,408.889 
		417.778,408.889 417.778,400 	"/>
	<path style="fill:#695A69;" d="M400,355.556h-53.333c-19.605,0-35.556,15.95-35.556,35.555v17.778V480h17.778v-71.111v-17.778
		c0-9.805,7.975-17.778,17.778-17.778H400h17.778v17.778V400v8.889V480h17.778V302.222c0-9.818-7.959-17.778-17.778-17.778v71.111
		H400z"/>
	<polygon style="fill:#A08A8A;" points="133.333,320 133.333,337.778 213.333,337.778 266.667,337.778 346.667,337.778 346.667,320 
		244.444,320 235.556,320 	"/>
	<path style="fill:#695A69;" d="M231.111,362.921v82.648c-15.318,3.957-26.667,17.894-26.667,34.43h17.778
		c0-9.805,7.975-17.778,17.778-17.778s17.778,7.973,17.778,17.778h17.778c0-16.537-11.349-30.473-26.667-34.43v-82.648
		c10.356-3.661,17.778-13.533,17.778-25.143h-53.333C213.333,349.388,220.755,359.26,231.111,362.921z"/>
</g>
<g>
</g>
<g>
</g>
<g>
</g>
<g>
</g>
<g>
</g>
<g>
</g>
<g>
</g>
<g>
</g>
<g>
</g>
<g>
</g>
<g>
</g>
<g>
</g>
<g>
</g>
<g>
</g>
<g>
</g>
</svg>
