<?xml version="1.0" encoding="iso-8859-1"?>
<!-- Generator: Adobe Illustrator 19.0.0, SVG Export Plug-In . SVG Version: 6.00 Build 0)  -->
<svg version="1.1" id="Layer_1" xmlns="http://www.w3.org/2000/svg" xmlns:xlink="http://www.w3.org/1999/xlink" x="0px" y="0px"
	 viewBox="0 0 464 464" style="enable-background:new 0 0 464 464;" xml:space="preserve">
<g>
	<path style="fill:#BEC8DC;" d="M256,20V8c0-4.418-3.582-8-8-8h-32c-4.418,0-8,3.582-8,8v12H256z"/>
	<path style="fill:#AFBBD0;" d="M224,20V8c0-4.418,3.582-8,8-8h-16c-4.418,0-8,3.582-8,8v12H224z"/>
	<g>
		<g>
			<path style="fill:#DCD7D7;" d="M304,16H160c-17.673,0-32,14.327-32,32v167h208V48C336,30.327,321.673,16,304,16z"/>
		</g>
		<g>
			<path style="fill:#D0CBCC;" d="M184,16h-24c-17.673,0-32,14.327-32,32v167h24V48C152,30.327,166.327,16,184,16z"/>
		</g>
	</g>
	<path style="fill:#BEC8DC;" d="M344,208H120c-4.418,0-8,3.582-8,8v8h240v-8C352,211.582,348.418,208,344,208z"/>
	<path style="fill:#AFBBD0;" d="M120,208c-4.418,0-8,3.582-8,8v8h72v-8c0-4.418,3.582-8,8-8H120z"/>
	<g>
		<path style="fill:#DCD7D7;" d="M352,256H112c-4.418,0-8-3.582-8-8v-16c0-4.418,3.582-8,8-8h240c4.418,0,8,3.582,8,8v16
			C360,252.418,356.418,256,352,256z"/>
	</g>
	<g>
		<path style="fill:#EBE6E6;" d="M305,464H159c-3.866,0-7-3.134-7-7v-10c0-3.866,3.134-7,7-7h146c3.866,0,7,3.134,7,7v10
			C312,460.866,308.866,464,305,464z"/>
	</g>
	<g>
		<polygon style="fill:#DCD7D7;" points="304,440 160,440 176,360 288,360 		"/>
	</g>
	<g>
		<path style="fill:#D0CBCC;" d="M232,256H112c0,26,28.616,83.055,64,104h56h56c35.384-20.945,64-78,64-104H232z"/>
	</g>
	<g>
		<path style="fill:#C8C3C4;" d="M176.615,256H112c0,26,28.616,83.055,64,104h56C196.616,339.055,176.615,282,176.615,256z"/>
	</g>
	<g>
		<polygon style="fill:#D0CBCC;" points="176,360 160,440 200,440 216,360 		"/>
	</g>
	<g>
		<path style="fill:#DCD7D7;" d="M208,456v-8c0-4.418,3.582-8,8-8h-56c-4.418,0-8,3.582-8,8v8c0,4.418,3.582,8,8,8h56
			C211.582,464,208,460.418,208,456z"/>
	</g>
	<g>
		<path style="fill:#D0CBCC;" d="M192,248v-16c0-4.418,3.582-8,8-8h-88c-4.418,0-8,3.582-8,8v16c0,4.418,3.582,8,8,8h88
			C195.582,256,192,252.418,192,248z"/>
	</g>
</g>
<g>
</g>
<g>
</g>
<g>
</g>
<g>
</g>
<g>
</g>
<g>
</g>
<g>
</g>
<g>
</g>
<g>
</g>
<g>
</g>
<g>
</g>
<g>
</g>
<g>
</g>
<g>
</g>
<g>
</g>
</svg>
